<svg xmlns="http://www.w3.org/2000/svg" viewBox="0 0 512 512" id="schedule"><path fill="#eceff1" fill-rule="evenodd" d="M433.749 67.484c20.432 0 37.097 16.665 37.097 37.097v256.365c0 10.216-3.642 19.007-10.865 26.231l-56.173 56.172c-7.224 7.224-16.015 10.865-26.231 10.865H47.942c-20.432 0-37.097-16.665-37.097-37.097V104.581c0-20.432 16.664-37.097 37.097-37.097h385.807z" clip-rule="evenodd"></path><path fill="#d1d1d6" fill-rule="evenodd" d="M433.749 67.484c20.432 0 37.097 16.665 37.097 37.097v256.365c0 10.216-3.641 19.007-10.865 26.231h-17.886V104.581c0-20.432-16.665-37.097-37.097-37.097h28.751z" clip-rule="evenodd"></path><path fill="#d1d1d6" fill-rule="evenodd" d="M10.846 148.443h460v-43.862c0-20.432-16.665-37.097-37.097-37.097H47.942c-20.432 0-37.097 16.665-37.097 37.097l.001 43.862z" clip-rule="evenodd"></path><path fill="#b1b1b5" fill-rule="evenodd" d="M442.095 148.443h28.751v-43.862c0-20.432-16.665-37.097-37.097-37.097h-28.751c20.432 0 37.097 16.665 37.097 37.097v43.862z" clip-rule="evenodd"></path><path fill="#8ac9fe" fill-rule="evenodd" d="M397.487 274.355H362.43c-5.278 0-9.583 4.305-9.583 9.583v35.057c0 5.278 4.305 9.583 9.583 9.583h35.057c5.278 0 9.583-4.305 9.583-9.583v-35.057c0-5.278-4.305-9.583-9.583-9.583zm-69.557 69.556h-35.057c-5.278 0-9.583 4.305-9.583 9.583v35.057c0 5.278 4.305 9.583 9.583 9.583h35.057c5.278 0 9.583-4.305 9.583-9.583v-35.057c.001-5.278-4.304-9.583-9.583-9.583zm-69.556 0h-35.057c-5.278 0-9.583 4.305-9.583 9.583v35.057c0 5.278 4.305 9.583 9.583 9.583h35.057c5.278 0 9.583-4.305 9.583-9.583v-35.057c0-5.278-4.305-9.583-9.583-9.583zm-69.556 0h-35.057c-5.278 0-9.583 4.305-9.583 9.583v35.057c0 5.278 4.305 9.583 9.583 9.583h35.057c5.278 0 9.583-4.305 9.583-9.583v-35.057c0-5.278-4.305-9.583-9.583-9.583zm0-69.556h-35.057c-5.278 0-9.583 4.305-9.583 9.583v35.057c0 5.278 4.305 9.583 9.583 9.583h35.057c5.278 0 9.583-4.305 9.583-9.583v-35.057c0-5.278-4.305-9.583-9.583-9.583zm69.556 0h-35.057c-5.278 0-9.583 4.305-9.583 9.583v35.057c0 5.278 4.305 9.583 9.583 9.583h35.057c5.278 0 9.583-4.305 9.583-9.583v-35.057c0-5.278-4.305-9.583-9.583-9.583zm69.556 0h-35.057c-5.278 0-9.583 4.305-9.583 9.583v35.057c0 5.278 4.305 9.583 9.583 9.583h35.057c5.278 0 9.583-4.305 9.583-9.583v-35.057c.001-5.278-4.304-9.583-9.583-9.583zm0-69.557h-35.057c-5.278 0-9.583 4.305-9.583 9.583v35.057c0 5.278 4.305 9.583 9.583 9.583h35.057c5.278 0 9.583-4.305 9.583-9.583v-35.057c.001-5.278-4.304-9.583-9.583-9.583zm-69.556 0h-35.057c-5.278 0-9.583 4.305-9.583 9.583v35.057c0 5.278 4.305 9.583 9.583 9.583h35.057c5.278 0 9.583-4.305 9.583-9.583v-35.057c0-5.278-4.305-9.583-9.583-9.583zm-69.556 0h-35.057c-5.278 0-9.583 4.305-9.583 9.583v35.057c0 5.278 4.305 9.583 9.583 9.583h35.057c5.278 0 9.583-4.305 9.583-9.583v-35.057c0-5.278-4.305-9.583-9.583-9.583zm208.669 0H362.43c-5.278 0-9.583 4.305-9.583 9.583v35.057c0 5.278 4.305 9.583 9.583 9.583h35.057c5.278 0 9.583-4.305 9.583-9.583v-35.057c0-5.278-4.305-9.583-9.583-9.583z" clip-rule="evenodd"></path><path fill="#60b7ff" fill-rule="evenodd" d="m188.818 343.911-.001 35.056c0 5.278-4.305 9.583-9.583 9.583h-35.056v.001c0 5.278 4.305 9.583 9.583 9.583h35.057c5.278 0 9.583-4.305 9.583-9.583v-35.057c0-5.278-4.305-9.583-9.583-9.583zm208.669-69.556-.001 35.056c0 5.278-4.305 9.583-9.583 9.583h-35.057v.001c0 5.278 4.305 9.583 9.583 9.583h35.057c5.278 0 9.583-4.305 9.583-9.583v-35.057c.001-5.278-4.304-9.583-9.582-9.583zm0-69.557-.001 35.056c0 5.278-4.305 9.583-9.583 9.583h-35.057v.001c0 5.278 4.305 9.583 9.583 9.583h35.057c5.278 0 9.583-4.305 9.583-9.583v-35.057c.001-5.278-4.304-9.583-9.582-9.583zm-69.557 0v35.056c0 5.278-4.305 9.583-9.583 9.583H283.29v.001c0 5.278 4.305 9.583 9.583 9.583h35.057c5.278 0 9.583-4.305 9.583-9.583v-35.057c.001-5.278-4.304-9.583-9.583-9.583zm-69.556 0-.001 35.056c0 5.278-4.305 9.583-9.583 9.583h-35.056v.001c0 5.278 4.305 9.583 9.583 9.583h35.057c5.278 0 9.583-4.305 9.583-9.583v-35.057c0-5.278-4.305-9.583-9.583-9.583zm-69.556 0-.001 35.056c0 5.278-4.305 9.583-9.583 9.583h-35.056v.001c0 5.278 4.305 9.583 9.583 9.583h35.057c5.278 0 9.583-4.305 9.583-9.583v-35.057c0-5.278-4.305-9.583-9.583-9.583zm0 69.557-.001 35.056c0 5.278-4.305 9.583-9.583 9.583h-35.056v.001c0 5.278 4.305 9.583 9.583 9.583h35.057c5.278 0 9.583-4.305 9.583-9.583v-35.057c0-5.278-4.305-9.583-9.583-9.583zm69.556 0-.001 35.056c0 5.278-4.305 9.583-9.583 9.583h-35.056v.001c0 5.278 4.305 9.583 9.583 9.583h35.057c5.278 0 9.583-4.305 9.583-9.583v-35.057c0-5.278-4.305-9.583-9.583-9.583zm69.556 0v35.056c0 5.278-4.305 9.583-9.583 9.583H283.29v.001c0 5.278 4.305 9.583 9.583 9.583h35.057c5.278 0 9.583-4.305 9.583-9.583v-35.057c.001-5.278-4.304-9.583-9.583-9.583zm0 69.556v35.056c0 5.278-4.305 9.583-9.583 9.583H283.29v.001c0 5.278 4.305 9.583 9.583 9.583h35.057c5.278 0 9.583-4.305 9.583-9.583v-35.057c.001-5.278-4.304-9.583-9.583-9.583zm-69.556 0-.001 35.056c0 5.278-4.305 9.583-9.583 9.583h-35.056v.001c0 5.278 4.305 9.583 9.583 9.583h35.057c5.278 0 9.583-4.305 9.583-9.583v-35.057c0-5.278-4.305-9.583-9.583-9.583z" clip-rule="evenodd"></path><path fill="#fe646f" fill-rule="evenodd" d="M119.261 343.911H84.205c-5.278 0-9.583 4.305-9.583 9.583v35.057c0 5.278 4.305 9.583 9.583 9.583h35.057c5.278 0 9.583-4.305 9.583-9.583v-35.057c0-5.278-4.305-9.583-9.584-9.583zm0-139.113H84.205c-5.278 0-9.583 4.305-9.583 9.583v35.057c0 5.278 4.305 9.583 9.583 9.583h35.057c5.278 0 9.583-4.305 9.583-9.583v-35.057c0-5.278-4.305-9.583-9.584-9.583zm0 69.557H84.205c-5.278 0-9.583 4.305-9.583 9.583v35.057c0 5.278 4.305 9.583 9.583 9.583h35.057c5.278 0 9.583-4.305 9.583-9.583v-35.057c0-5.278-4.305-9.583-9.584-9.583z" clip-rule="evenodd"></path><path fill="#fd4755" fill-rule="evenodd" d="m119.261 204.798-.001 35.056c0 5.278-4.305 9.583-9.583 9.583H74.621v.001c0 5.278 4.305 9.583 9.583 9.583h35.057c5.278 0 9.583-4.305 9.583-9.583v-35.057c.001-5.278-4.304-9.583-9.583-9.583zm0 139.113-.001 35.056c0 5.278-4.305 9.583-9.583 9.583H74.621v.001c0 5.278 4.305 9.583 9.583 9.583h35.057c5.278 0 9.583-4.305 9.583-9.583v-35.057c.001-5.278-4.304-9.583-9.583-9.583zm0-69.556-.001 35.056c0 5.278-4.305 9.583-9.583 9.583H74.621v.001c0 5.278 4.305 9.583 9.583 9.583h35.057c5.278 0 9.583-4.305 9.583-9.583v-35.057c.001-5.278-4.304-9.583-9.583-9.583z" clip-rule="evenodd"></path><path fill="#d1d1d6" fill-rule="evenodd" d="M392.943 385.586V451c3.939-1.799 7.566-4.351 10.865-7.65l56.173-56.172c3.299-3.299 5.851-6.926 7.65-10.865h-65.413c-5.109-.001-9.275 4.165-9.275 9.273z" clip-rule="evenodd"></path><path fill="#b1b1b5" fill-rule="evenodd" d="m442.095 405.063 17.886-17.886c3.299-3.299 5.851-6.926 7.65-10.865h-25.536v28.751z" clip-rule="evenodd"></path><path fill="#837683" fill-rule="evenodd" d="M76.973 36.543h18.389c5.108 0 9.274 4.166 9.274 9.274v56.256c0 5.108-4.166 9.274-9.274 9.274H76.973c-5.108 0-9.274-4.166-9.274-9.274V45.817c0-5.108 4.166-9.274 9.274-9.274zm309.355 0h18.39c5.108 0 9.274 4.166 9.274 9.274v56.256c0 5.108-4.166 9.274-9.274 9.274h-18.39c-5.108 0-9.274-4.166-9.274-9.274V45.817c0-5.108 4.166-9.274 9.274-9.274zm-103.118 0h18.389c5.108 0 9.274 4.166 9.274 9.274v56.256c0 5.108-4.166 9.274-9.274 9.274H283.21c-5.108 0-9.274-4.166-9.274-9.274V45.817c0-5.108 4.166-9.274 9.274-9.274zm-103.119 0h18.39c5.108 0 9.274 4.166 9.274 9.274v56.256c0 5.108-4.166 9.274-9.274 9.274h-18.39c-5.108 0-9.274-4.166-9.274-9.274V45.817c0-5.108 4.166-9.274 9.274-9.274z" clip-rule="evenodd"></path><path fill="#685e68" fill-rule="evenodd" d="M94.636 36.543h.727c5.108 0 9.274 4.166 9.274 9.274v56.256c0 5.108-4.166 9.274-9.274 9.274h-18.39c-5.108 0-9.274-4.166-9.274-9.274v-.727h17.663c5.108 0 9.274-4.166 9.274-9.274V36.543zm309.355 0h.727c5.108 0 9.274 4.166 9.274 9.274v56.256c0 5.108-4.166 9.274-9.274 9.274h-18.39c-5.108 0-9.274-4.166-9.274-9.274v-.727h17.663c5.108 0 9.274-4.166 9.274-9.274V36.543zm-103.118 0h.726c5.108 0 9.274 4.166 9.274 9.274v56.256c0 5.108-4.166 9.274-9.274 9.274H283.21c-5.108 0-9.274-4.166-9.274-9.274v-.727h17.663c5.108 0 9.274-4.166 9.274-9.274V36.543zm-103.119 0h.727c5.108 0 9.274 4.166 9.274 9.274v56.256c0 5.108-4.166 9.274-9.274 9.274h-18.39c-5.108 0-9.274-4.166-9.274-9.274v-.727h17.663c5.108 0 9.274-4.166 9.274-9.274V36.543z" clip-rule="evenodd"></path><g fill-rule="evenodd" clip-rule="evenodd"><path fill="#ffe177" d="M239.831 395.684 421.883 80.36c9.87-17.094 31.861-22.987 48.954-13.117l12.414 7.167c17.094 9.869 22.987 31.86 13.117 48.954L314.317 438.689l-61.644 35.59c-2.723 1.572-5.839 1.572-8.561 0-2.722-1.572-4.281-4.271-4.281-7.414v-71.181z"></path><path fill="#ffd064" d="M490.657 80.09c11.183 11.188 13.983 28.949 5.712 43.274L314.317 438.689l-46.045 26.584L490.657 80.09z"></path><path fill="#685e68" d="M239.831 466.864v-71.18l74.486 43.004-61.644 35.59c-2.723 1.572-5.839 1.572-8.561 0-2.723-1.571-4.281-4.27-4.281-7.414z"></path></g></svg>